<?xml version="1.0" encoding="utf-8"?>
<!-- Generator: Adobe Illustrator 16.0.0, SVG Export Plug-In . SVG Version: 6.00 Build 0)  -->
<!DOCTYPE svg PUBLIC "-//W3C//DTD SVG 1.1//EN" "http://www.w3.org/Graphics/SVG/1.1/DTD/svg11.dtd">
<svg version="1.1" id="Capa_1" xmlns="http://www.w3.org/2000/svg" xmlns:xlink="http://www.w3.org/1999/xlink" x="0px" y="0px"
	 width="30px" height="30px" viewBox="0 0 30 30" enable-background="new 0 0 30 30" xml:space="preserve">
<g>
	<g>
		<path fill="#666666" d="M24.047,1.861H9.532c-1.033,0-1.874,0.841-1.874,1.874v1.197H5.952c-1.033,0-1.874,0.841-1.874,1.874
			v19.458c0,1.033,0.841,1.874,1.874,1.874h14.515c1.033,0,1.875-0.841,1.875-1.874v-1.197h1.705c1.033,0,1.875-0.841,1.875-1.873
			V3.735C25.922,2.702,25.08,1.861,24.047,1.861z M20.842,26.265c0,0.207-0.168,0.375-0.375,0.375H5.952
			c-0.206,0-0.375-0.168-0.375-0.375V6.807c0-0.206,0.169-0.375,0.375-0.375h1.706v16.763c0,1.032,0.841,1.873,1.874,1.873h11.31
			V26.265L20.842,26.265z M24.422,23.194c0,0.205-0.168,0.375-0.375,0.375H9.532c-0.207,0-0.375-0.17-0.375-0.375V3.735
			c0-0.207,0.168-0.375,0.375-0.375h14.515c0.207,0,0.375,0.168,0.375,0.375V23.194L24.422,23.194z"/>
		<path fill="#666666" d="M22.287,6.517H11.292c-0.414,0-0.749,0.337-0.749,0.75c0,0.414,0.335,0.75,0.749,0.75h10.995
			c0.414,0,0.75-0.336,0.75-0.75C23.037,6.854,22.701,6.517,22.287,6.517z"/>
		<path fill="#666666" d="M22.287,10.085H11.292c-0.414,0-0.749,0.336-0.749,0.75s0.335,0.75,0.749,0.75h10.995
			c0.414,0,0.75-0.336,0.75-0.75S22.701,10.085,22.287,10.085z"/>
		<path fill="#666666" d="M22.287,13.653H11.292c-0.414,0-0.749,0.336-0.749,0.75s0.335,0.749,0.749,0.749h10.995
			c0.414,0,0.75-0.335,0.75-0.749S22.701,13.653,22.287,13.653z"/>
		<path fill="#666666" d="M22.287,17.222H11.292c-0.414,0-0.749,0.336-0.749,0.749c0,0.414,0.335,0.749,0.749,0.749h10.995
			c0.414,0,0.75-0.335,0.75-0.749C23.037,17.558,22.701,17.222,22.287,17.222z"/>
	</g>
</g>
</svg>
