<?xml version="1.0" encoding="utf-8"?>
<!-- Generator: Adobe Illustrator 16.0.0, SVG Export Plug-In . SVG Version: 6.00 Build 0)  -->
<!DOCTYPE svg PUBLIC "-//W3C//DTD SVG 1.1//EN" "http://www.w3.org/Graphics/SVG/1.1/DTD/svg11.dtd">
<svg version="1.1" id="Capa_1" xmlns="http://www.w3.org/2000/svg" xmlns:xlink="http://www.w3.org/1999/xlink" x="0px" y="0px"
	 width="30px" height="30px" viewBox="0 0 30 30" enable-background="new 0 0 30 30" xml:space="preserve">
<g>
	<g>
		<path fill="#666666" d="M14.635,17.212h-0.727c-0.378,0-0.684-0.306-0.684-0.683c0-0.139,0.056-0.273,0.156-0.371
			c0.423-0.411,0.779-0.965,1.036-1.561c0.053,0.038,0.108,0.066,0.172,0.066c0.408,0,0.89-0.902,0.89-1.518
			s-0.058-1.114-0.466-1.114c-0.049,0-0.1,0.009-0.152,0.022c-0.028-1.669-0.45-3.75-2.997-3.75c-2.657,0-2.968,2.077-2.997,3.744
			c-0.038-0.008-0.075-0.017-0.11-0.017c-0.408,0-0.464,0.499-0.464,1.114s0.479,1.518,0.888,1.518c0.051,0,0.098-0.015,0.142-0.039
			c0.257,0.587,0.607,1.129,1.023,1.535c0.101,0.098,0.156,0.23,0.156,0.371c0,0.377-0.306,0.684-0.683,0.684H9.09
			c-1.556,0-2.816,1.26-2.816,2.816v0.78c0,0.491,0.397,0.89,0.889,0.89h9.4c0.49,0,0.888-0.398,0.888-0.89v-0.78
			C17.451,18.474,16.191,17.212,14.635,17.212z"/>
		<path fill="#666666" d="M23.068,9.484h-7.883c0.228,0.504,0.391,1.123,0.458,1.89c0.168,0.104,0.295,0.271,0.397,0.475h7.027
			c0.365,0,0.659-0.296,0.659-0.659v-1.046C23.728,9.781,23.434,9.484,23.068,9.484z"/>
		<path fill="#666666" d="M23.068,13.791h-6.866c-0.186,0.704-0.645,1.44-1.28,1.637c-0.019,0.035-0.041,0.065-0.061,0.1v0.628
			h8.206c0.364,0,0.659-0.296,0.659-0.66V14.45C23.728,14.086,23.434,13.791,23.068,13.791z"/>
		<path fill="#666666" d="M23.068,18.099h-5.36c0.354,0.56,0.562,1.22,0.562,1.93v0.434h4.799c0.365,0,0.659-0.295,0.659-0.658
			v-1.046C23.728,18.393,23.434,18.099,23.068,18.099z"/>
		<path fill="#666666" d="M25.901,2.912H4.1c-2.236,0-4.049,1.813-4.049,4.049v16.08c0,2.236,1.813,4.047,4.049,4.047h21.802
			c2.235,0,4.048-1.812,4.048-4.047V6.961C29.949,4.726,28.137,2.912,25.901,2.912z M28.038,23.041c0,1.178-0.959,2.136-2.137,2.136
			H4.1c-1.179,0-2.138-0.958-2.138-2.136V6.961c0-1.178,0.959-2.136,2.138-2.136h21.802c1.178,0,2.137,0.958,2.137,2.136V23.041
			L28.038,23.041z"/>
	</g>
</g>
</svg>
