<?xml version="1.0" encoding="utf-8"?>
<!-- Generator: Adobe Illustrator 16.0.0, SVG Export Plug-In . SVG Version: 6.00 Build 0)  -->
<!DOCTYPE svg PUBLIC "-//W3C//DTD SVG 1.1//EN" "http://www.w3.org/Graphics/SVG/1.1/DTD/svg11.dtd">
<svg version="1.1" id="Capa_1" xmlns="http://www.w3.org/2000/svg" xmlns:xlink="http://www.w3.org/1999/xlink" x="0px" y="0px"
	 width="30px" height="30px" viewBox="0 0 30 30" enable-background="new 0 0 30 30" xml:space="preserve">
<g>
	<path fill="#666666" d="M24.62,5.468L24.533,5.38c-2.052-2.053-5.41-2.053-7.461,0l-4.754,4.754c-2.052,2.052-2.052,5.409,0,7.461
		l0.088,0.088c0.17,0.171,0.352,0.325,0.539,0.468l1.74-1.74c-0.203-0.12-0.396-0.264-0.569-0.438l-0.088-0.088
		c-1.114-1.113-1.114-2.926,0-4.04l4.754-4.754c1.114-1.114,2.927-1.114,4.041,0l0.088,0.088c1.113,1.114,1.113,2.927,0,4.041
		l-2.151,2.15c0.374,0.922,0.551,1.905,0.535,2.886l3.326-3.326C26.673,10.877,26.673,7.52,24.62,5.468z M17.595,12.317
		c-0.171-0.17-0.352-0.324-0.539-0.467l-1.741,1.74c0.203,0.119,0.395,0.263,0.569,0.438l0.088,0.088
		c1.115,1.113,1.115,2.926,0,4.04l-4.754,4.755c-1.114,1.113-2.927,1.113-4.041,0l-0.088-0.089c-1.113-1.114-1.113-2.927,0-4.04
		l2.15-2.151c-0.373-0.922-0.55-1.905-0.534-2.886l-3.326,3.326c-2.052,2.052-2.052,5.409,0,7.461l0.088,0.088
		c2.052,2.053,5.409,2.053,7.461,0l4.754-4.754c2.052-2.051,2.052-5.409,0-7.461L17.595,12.317z"/>
</g>
</svg>
