<?xml version="1.0" encoding="utf-8"?>
<!-- Generator: Adobe Illustrator 16.0.0, SVG Export Plug-In . SVG Version: 6.00 Build 0)  -->
<!DOCTYPE svg PUBLIC "-//W3C//DTD SVG 1.1//EN" "http://www.w3.org/Graphics/SVG/1.1/DTD/svg11.dtd">
<svg version="1.1" id="Capa_1" xmlns="http://www.w3.org/2000/svg" xmlns:xlink="http://www.w3.org/1999/xlink" x="0px" y="0px"
	 width="466px" height="172px" viewBox="0 0 466 172" enable-background="new 0 0 466 172" xml:space="preserve">
<g>
	<g>
		<path fill-rule="evenodd" clip-rule="evenodd" fill="#EF4E41" d="M0.156,0.099l42,0.182c37.814,2.108,67.5,22.795,67.5,48.008
			c0,49.53-74.685,48.041-109.5,48.189V0.099z"/>
		<path fill="#231F20" d="M-0.127,96.762V-0.186l42.285,0.183C60.586,1.024,77.661,6.49,90.25,15.389
			c12.697,8.975,19.689,20.659,19.689,32.899c0,20.824-13.338,35.053-39.645,42.29c-22.011,6.055-48.83,6.125-66.577,6.172
			L-0.127,96.762z M0.439,0.383v95.81l3.277-0.011c17.717-0.046,44.49-0.116,66.428-6.151c26.03-7.161,39.229-21.206,39.229-41.743
			c0-12.052-6.908-23.571-19.45-32.437C77.42,7.014,60.45,1.584,42.141,0.563L0.439,0.383z"/>
	</g>
	<g>
		<path fill-rule="evenodd" clip-rule="evenodd" fill="#FFC132" d="M71.673,6.162c22.846,8.724,37.866,24.01,37.983,42.126
			c0.188,29.118-29.63,45.896-67.5,48.01l-42,0.18l41.111-73.725C57.748,11.973,65.472,3.794,71.673,6.162z"/>
		<path fill="#231F20" d="M-0.328,96.763l0.236-0.423l41.146-73.786l0.058-0.038c4.605-3.012,8.493-5.797,11.922-8.255
			c7.391-5.295,12.273-8.793,16.378-8.793c0.833,0,1.604,0.141,2.361,0.43c23.785,9.082,38.053,24.929,38.166,42.389
			c0.09,13.887-6.689,25.771-19.604,34.369c-12.053,8.024-28.708,12.84-48.163,13.926L-0.328,96.763z M41.481,22.952L0.64,96.192
			l41.515-0.178c40.999-2.29,67.39-21.023,67.217-47.725C109.261,31.072,95.13,15.423,71.572,6.427
			c-0.691-0.264-1.397-0.392-2.159-0.392c-3.923,0-8.746,3.456-16.047,8.687C49.945,17.172,46.07,19.948,41.481,22.952z"/>
	</g>
	<g>
		<path fill-rule="evenodd" clip-rule="evenodd" fill="#A5CD39" d="M86.596,171.901C38.407,169.42,0.156,132.488,0.156,87.288
			S38.407,5.156,86.596,2.675C55.314,10.484,31.72,45.396,31.72,87.288S55.314,164.092,86.596,171.901z"/>
		<path fill="#231F20" d="M89.502,172.335l-2.921-0.15C37.959,169.681-0.127,132.39-0.127,87.288S37.959,4.896,86.581,2.392
			l2.921-0.15L86.665,2.95c-31.673,7.907-54.661,43.377-54.661,84.338c0,40.962,22.988,76.431,54.661,84.338L89.502,172.335z
			 M83.853,3.138C36.858,6.864,0.44,43.344,0.44,87.288c0,43.944,36.418,80.424,83.413,84.15
			c-30.534-9.245-52.417-44.092-52.417-84.15S53.319,12.383,83.853,3.138z"/>
	</g>
	<g>
		<path fill="#58595B" d="M465.844,152.543h-30c-17.255,0-31.292-14.305-31.292-31.889s14.037-31.89,31.292-31.89h30v7.086h-30
			c-13.347,0-24.206,11.127-24.206,24.803c0,13.677,10.859,24.804,24.206,24.804h30V152.543z M367.313,152.543
			c-17.584,0-31.89-14.305-31.89-31.889s14.306-31.89,31.89-31.89s31.89,14.306,31.89,31.89S384.896,152.543,367.313,152.543z
			 M367.313,95.851c-13.677,0-24.804,11.127-24.804,24.804c0,13.676,11.127,24.803,24.804,24.803s24.804-11.127,24.804-24.803
			C392.116,106.978,380.989,95.851,367.313,95.851z M260.262,152.543h-30.001c-17.255,0-31.293-14.305-31.293-31.889
			s14.038-31.89,31.293-31.89h30.001v7.086h-30.001c-11.887,0-21.8,8.825-23.828,20.416h53.266v7.086h-53.503
			c1.317,12.411,11.607,22.104,24.064,22.104h30.001V152.543z M328.949,149h-7.086V95.851h-30.239c-8.987,0-16.3,7.312-16.3,16.299
			v12.724h-7.086v-12.724c0-12.895,10.49-23.385,23.386-23.385h37.325V149z M193.514,149h-7.087V96.317l-21.259,2.636V149h-7.087
			V98.715l-21.26-2.435V149h-7.087V88.335l32.999,3.779l30.781-3.816V149z"/>
	</g>
	<g>
		<path fill="#F48120" d="M461.97,147.217h-30c-17.255,0-31.293-14.306-31.293-31.89s14.038-31.89,31.293-31.89h30v7.086h-30
			c-13.348,0-24.207,11.127-24.207,24.804s10.859,24.804,24.207,24.804h30V147.217z M363.438,147.217
			c-17.584,0-31.89-14.306-31.89-31.89s14.306-31.89,31.89-31.89s31.89,14.306,31.89,31.89S381.022,147.217,363.438,147.217z
			 M363.438,90.523c-13.677,0-24.804,11.127-24.804,24.804s11.127,24.804,24.804,24.804s24.804-11.127,24.804-24.804
			S377.115,90.523,363.438,90.523z M256.387,147.217h-30c-17.255,0-31.293-14.306-31.293-31.89s14.038-31.89,31.293-31.89h30v7.086
			h-30c-11.887,0-21.8,8.824-23.828,20.416h53.266v7.086h-53.503c1.316,12.412,11.606,22.105,24.064,22.105h30V147.217z
			 M325.075,143.674h-7.086v-53.15H287.75c-8.987,0-16.3,7.313-16.3,16.3v12.723h-7.086v-12.723
			c0-12.896,10.49-23.386,23.386-23.386h37.325V143.674z M189.64,143.674h-7.087V90.99l-21.259,2.637v50.047h-7.087V93.388
			l-21.26-2.435v52.721h-7.087V83.008l32.999,3.78l30.781-3.817V143.674z"/>
	</g>
</g>
</svg>
