<?xml version="1.0" encoding="utf-8"?>
<!-- Generator: Adobe Illustrator 16.0.0, SVG Export Plug-In . SVG Version: 6.00 Build 0)  -->
<!DOCTYPE svg PUBLIC "-//W3C//DTD SVG 1.1//EN" "http://www.w3.org/Graphics/SVG/1.1/DTD/svg11.dtd">
<svg version="1.1" id="Capa_1" xmlns="http://www.w3.org/2000/svg" xmlns:xlink="http://www.w3.org/1999/xlink" x="0px" y="0px"
	 width="30px" height="30px" viewBox="0 0 30 30" enable-background="new 0 0 30 30" xml:space="preserve">
<g>
	<g>
		<g>
			<path fill="#666666" d="M10.731,17.795c-1.882,0-3.635-0.73-4.932-2.063c-2.683-2.75-2.566-7.228,0.258-9.981
				c1.371-1.335,3.164-2.07,5.053-2.07c1.883,0,3.635,0.733,4.932,2.063c2.683,2.749,2.564,7.228-0.258,9.979
				C14.413,17.059,12.618,17.795,10.731,17.795z M11.11,5.016c-1.538,0-3.003,0.6-4.121,1.691c-2.295,2.24-2.4,5.871-0.233,8.093
				c2.1,2.151,5.871,2.138,8.096-0.033c2.297-2.24,2.402-5.87,0.234-8.092C14.044,5.604,12.632,5.016,11.11,5.016z"/>
			<path fill="#666666" d="M25.483,29.236L25.483,29.236c-0.95,0-1.837-0.371-2.496-1.047l-5.5-5.641
				c-0.607-0.622-0.953-1.46-0.977-2.339l-0.828-0.849c-1.541,0.883-3.274,1.344-5.047,1.344c-2.656,0-5.127-1.033-6.955-2.908
				C-0.106,13.916,0.06,7.589,4.053,3.694c1.938-1.889,4.476-2.931,7.146-2.931c2.659,0,5.132,1.035,6.963,2.911
				c3.12,3.197,3.608,8.164,1.265,12.038l0.836,0.854c0.941,0.064,1.718,0.423,2.306,1.027l5.501,5.639
				c0.647,0.664,0.998,1.542,0.985,2.475c-0.011,0.933-0.383,1.804-1.047,2.451C27.261,28.887,26.397,29.236,25.483,29.236z
				 M15.878,17.792c0.057,0,0.114,0.007,0.17,0.022c0.184,0.049,0.337,0.172,0.424,0.34c0.064,0.127,0.111,0.22,0.161,0.27
				l1.027,1.053c0.132,0.135,0.2,0.32,0.189,0.508c-0.038,0.62,0.172,1.201,0.593,1.633l5.502,5.639
				c0.793,0.817,2.218,0.833,3.036,0.038c0.502-0.488,0.729-1.026,0.737-1.601c0.007-0.576-0.209-1.119-0.607-1.527l-5.502-5.639
				c-0.398-0.408-0.943-0.635-1.532-0.635c-0.181,0-0.46-0.07-0.587-0.199l-1.027-1.054c-0.048-0.05-0.138-0.099-0.243-0.155
				c-0.165-0.092-0.298-0.257-0.34-0.439c-0.044-0.184-0.019-0.385,0.09-0.541c2.38-3.42,2.06-8.002-0.764-10.896
				C15.628,2.991,13.494,2.1,11.198,2.1c-2.319,0-4.525,0.906-6.213,2.553c-3.465,3.379-3.621,8.858-0.35,12.215
				c1.577,1.615,3.707,2.504,6,2.504c1.731,0,3.417-0.506,4.874-1.469C15.62,17.83,15.749,17.792,15.878,17.792z"/>
		</g>
	</g>
</g>
</svg>
